<svg id="svg" version="1.1" xmlns="http://www.w3.org/2000/svg" xmlns:xlink="http://www.w3.org/1999/xlink" width="400" height="400" viewBox="0, 0, 400,400"><g id="svgg"><path id="path0" d="M0.000 200.000 L 0.000 400.000 200.000 400.000 L 400.000 400.000 400.000 200.000 L 400.000 0.000 200.000 0.000 L 0.000 0.000 0.000 200.000 M95.200 60.769 C 95.200 60.981,96.451 61.044,98.143 60.916 C 100.127 60.766,101.178 60.841,101.367 61.147 C 101.521 61.396,102.076 61.600,102.600 61.600 C 103.124 61.600,103.664 61.780,103.800 62.000 C 103.936 62.220,104.577 62.400,105.224 62.400 C 106.022 62.400,106.400 62.600,106.400 63.024 C 106.400 63.374,106.592 63.528,106.838 63.376 C 107.217 63.142,109.011 63.807,109.600 64.400 C 109.710 64.511,110.340 64.869,111.000 65.196 C 114.977 67.165,121.194 73.385,123.199 77.400 C 123.529 78.060,123.889 78.690,124.000 78.800 C 124.111 78.910,124.402 79.450,124.647 80.000 C 124.892 80.550,125.327 81.495,125.614 82.099 C 125.900 82.704,126.014 83.319,125.866 83.467 C 125.719 83.614,125.845 84.020,126.147 84.368 C 127.225 85.611,127.779 90.356,127.073 92.300 C 126.819 93.000,126.892 93.200,127.400 93.200 C 127.877 93.200,128.019 93.497,127.927 94.300 C 127.857 94.905,127.595 95.362,127.346 95.315 C 127.023 95.255,126.991 95.661,127.236 96.715 C 127.705 98.734,127.687 101.099,127.200 101.400 C 126.980 101.536,126.800 102.076,126.800 102.600 C 126.800 103.124,126.620 103.664,126.400 103.800 C 126.180 103.936,126.000 104.566,126.000 105.200 C 126.000 105.834,125.820 106.464,125.600 106.600 C 125.380 106.736,125.200 107.119,125.200 107.452 C 125.200 107.784,124.693 108.808,124.073 109.728 C 123.454 110.648,122.651 112.030,122.289 112.800 C 121.316 114.870,115.688 120.557,112.600 122.590 C 110.194 124.174,106.183 126.028,105.526 125.861 C 105.155 125.766,104.764 125.916,104.658 126.194 C 104.325 127.062,100.753 127.588,98.500 127.101 C 97.523 126.890,97.200 126.958,97.200 127.375 C 97.200 128.589,91.123 128.619,90.658 127.407 C 90.500 126.994,90.074 126.958,88.781 127.249 C 87.107 127.625,85.600 127.426,85.600 126.829 C 85.600 126.654,85.171 126.593,84.647 126.693 C 84.123 126.793,83.572 126.678,83.423 126.438 C 83.275 126.197,82.783 126.000,82.331 126.000 C 81.609 126.000,78.543 124.572,78.000 123.983 C 77.890 123.864,77.247 123.504,76.572 123.183 C 73.238 121.600,66.916 115.274,65.196 111.800 C 64.869 111.140,64.511 110.510,64.401 110.400 C 63.863 109.864,62.400 106.636,62.400 105.986 C 62.400 105.580,62.220 105.136,62.000 105.000 C 61.780 104.864,61.600 104.324,61.600 103.800 C 61.600 103.276,61.400 102.724,61.155 102.572 C 60.869 102.395,60.801 101.617,60.964 100.385 C 61.147 99.008,61.075 98.425,60.709 98.303 C 60.343 98.181,60.200 97.028,60.200 94.200 C 60.200 91.372,60.343 90.219,60.709 90.097 C 61.075 89.975,61.147 89.392,60.964 88.015 C 60.801 86.783,60.869 86.005,61.155 85.828 C 61.400 85.676,61.600 85.124,61.600 84.600 C 61.600 84.076,61.780 83.536,62.000 83.400 C 62.220 83.264,62.400 82.801,62.400 82.371 C 62.400 81.668,63.075 80.117,63.605 79.600 C 63.718 79.490,64.240 78.548,64.765 77.506 C 65.570 75.908,67.181 73.756,69.782 70.800 C 70.588 69.885,74.465 66.621,74.961 66.440 C 75.203 66.352,75.490 66.172,75.600 66.040 C 75.710 65.908,76.520 65.426,77.400 64.970 C 78.280 64.513,79.450 63.900,80.000 63.607 C 81.944 62.573,82.397 62.400,83.171 62.400 C 83.601 62.400,84.064 62.220,84.200 62.000 C 84.336 61.780,84.977 61.600,85.624 61.600 C 86.271 61.600,86.800 61.394,86.800 61.143 C 86.800 60.820,87.739 60.750,90.000 60.905 C 91.805 61.029,93.200 60.967,93.200 60.762 C 93.200 60.563,93.650 60.400,94.200 60.400 C 94.750 60.400,95.200 60.566,95.200 60.769 M283.913 148.873 C 284.190 149.150,285.287 149.305,286.553 149.246 C 287.768 149.190,288.835 149.333,288.983 149.573 C 289.128 149.808,289.856 150.000,290.600 150.000 C 291.344 150.000,292.064 150.180,292.200 150.400 C 292.336 150.620,293.067 150.800,293.824 150.800 C 294.581 150.800,295.200 150.980,295.200 151.200 C 295.200 151.420,295.650 151.600,296.200 151.600 C 296.750 151.600,297.200 151.780,297.200 152.000 C 297.200 152.220,297.639 152.400,298.176 152.400 C 298.713 152.400,299.264 152.580,299.400 152.800 C 299.536 153.020,299.909 153.200,300.228 153.200 C 300.967 153.200,304.556 154.858,304.733 155.281 C 304.807 155.457,305.125 155.600,305.441 155.600 C 305.757 155.600,306.729 156.050,307.600 156.600 C 308.471 157.150,309.270 157.600,309.374 157.600 C 309.695 157.600,314.962 161.330,315.600 162.008 C 315.710 162.125,316.966 163.206,318.390 164.410 C 321.397 166.951,324.455 170.198,326.483 173.000 C 326.642 173.220,327.288 174.030,327.919 174.800 C 328.549 175.570,329.187 176.470,329.336 176.800 C 329.485 177.130,329.994 178.030,330.468 178.800 C 331.984 181.268,334.400 186.093,334.400 186.655 C 334.400 186.955,334.580 187.200,334.800 187.200 C 335.020 187.200,335.200 187.650,335.200 188.200 C 335.200 188.750,335.380 189.200,335.600 189.200 C 335.820 189.200,336.000 189.639,336.000 190.176 C 336.000 190.713,336.197 191.275,336.438 191.423 C 336.678 191.572,336.793 192.123,336.693 192.647 C 336.568 193.301,336.695 193.600,337.097 193.600 C 337.541 193.600,337.647 193.991,337.531 195.200 C 337.419 196.381,337.526 196.800,337.942 196.800 C 338.367 196.800,338.453 197.187,338.294 198.373 C 338.136 199.556,338.235 200.005,338.696 200.182 C 339.187 200.370,339.267 200.889,339.095 202.781 C 338.931 204.587,339.013 205.196,339.440 205.360 C 340.228 205.662,340.286 335.898,339.500 337.305 C 338.905 338.370,338.273 338.815,336.400 339.486 C 334.294 340.241,286.281 340.224,285.525 339.468 C 285.232 339.175,284.776 339.008,284.510 339.097 C 283.837 339.321,282.028 337.932,282.013 337.180 C 282.006 336.839,281.817 336.377,281.594 336.154 C 281.323 335.883,281.224 317.571,281.294 280.879 C 281.378 237.274,281.297 225.969,280.900 225.817 C 280.625 225.711,280.400 225.090,280.400 224.436 C 280.400 223.782,280.220 223.136,280.000 223.000 C 279.780 222.864,279.600 222.324,279.600 221.800 C 279.600 221.276,279.420 220.736,279.200 220.600 C 278.980 220.464,278.800 220.003,278.800 219.576 C 278.800 219.149,278.620 218.800,278.400 218.800 C 278.180 218.800,278.000 218.455,278.000 218.033 C 278.000 217.612,277.859 217.207,277.688 217.133 C 277.516 217.060,277.111 216.447,276.788 215.772 C 274.978 211.990,267.855 205.129,264.700 204.129 C 264.315 204.007,264.000 203.748,264.000 203.553 C 264.000 203.359,263.640 203.200,263.200 203.200 C 262.760 203.200,262.400 203.020,262.400 202.800 C 262.400 202.580,261.961 202.400,261.424 202.400 C 260.887 202.400,260.336 202.220,260.200 202.000 C 260.064 201.780,259.524 201.600,259.000 201.600 C 258.476 201.600,257.936 201.420,257.800 201.200 C 257.664 200.980,256.852 200.800,255.996 200.800 C 255.140 200.800,254.296 200.575,254.120 200.300 C 253.897 199.952,252.523 199.800,249.600 199.800 C 246.677 199.800,245.303 199.952,245.080 200.300 C 244.904 200.576,243.972 200.800,243.004 200.800 C 242.038 200.800,241.136 200.980,241.000 201.200 C 240.864 201.420,240.401 201.600,239.971 201.600 C 239.541 201.600,238.877 201.768,238.495 201.974 C 238.113 202.179,237.215 202.583,236.500 202.871 C 235.785 203.160,235.200 203.531,235.200 203.698 C 235.200 203.864,234.840 204.000,234.400 204.000 C 233.960 204.000,233.600 204.136,233.600 204.302 C 233.600 204.469,233.036 204.854,232.347 205.159 C 229.466 206.435,223.287 213.219,221.199 217.400 C 220.649 218.500,220.065 219.460,219.900 219.533 C 219.735 219.607,219.600 220.192,219.600 220.833 C 219.600 221.475,219.420 222.000,219.200 222.000 C 218.980 222.000,218.800 222.529,218.800 223.176 C 218.800 223.823,218.620 224.464,218.400 224.600 C 218.180 224.736,218.000 225.917,218.000 227.224 C 218.000 228.858,217.844 229.600,217.500 229.600 C 217.102 229.600,217.021 240.552,217.103 283.300 L 217.206 337.000 216.214 338.150 C 215.538 338.933,214.970 339.233,214.430 339.092 C 213.995 338.978,213.572 339.085,213.490 339.330 C 213.334 339.798,165.170 339.798,162.468 339.330 C 160.716 339.026,159.058 337.382,159.360 336.249 C 159.654 335.151,159.664 157.263,159.371 156.180 C 159.220 155.623,159.495 155.014,160.229 154.280 L 161.309 153.200 187.555 153.213 C 216.022 153.228,215.600 153.195,215.600 155.364 C 215.600 155.714,215.780 156.000,216.000 156.000 C 216.256 156.000,216.400 159.667,216.400 166.200 C 216.400 171.810,216.535 176.398,216.700 176.395 C 217.005 176.390,218.800 173.808,218.800 173.374 C 218.800 172.435,227.440 163.054,230.200 160.997 C 231.080 160.341,231.890 159.692,232.000 159.554 C 232.407 159.044,237.955 155.600,238.370 155.600 C 238.607 155.600,238.800 155.420,238.800 155.200 C 238.800 154.980,239.160 154.800,239.600 154.800 C 240.040 154.800,240.400 154.620,240.400 154.400 C 240.400 154.180,240.665 154.000,240.988 154.000 C 241.311 154.000,242.217 153.640,243.000 153.200 C 243.783 152.760,244.779 152.400,245.212 152.400 C 245.645 152.400,246.000 152.220,246.000 152.000 C 246.000 151.780,246.540 151.600,247.200 151.600 C 247.860 151.600,248.400 151.420,248.400 151.200 C 248.400 150.980,248.940 150.800,249.600 150.800 C 250.260 150.800,250.800 150.620,250.800 150.400 C 250.800 150.180,251.509 150.000,252.376 150.000 C 253.243 150.000,254.064 149.820,254.200 149.600 C 254.336 149.380,255.236 149.200,256.200 149.200 C 257.164 149.200,258.064 149.020,258.200 148.800 C 258.576 148.191,283.302 148.262,283.913 148.873 M116.200 153.600 C 116.336 153.820,116.710 154.000,117.032 154.000 C 117.905 154.000,120.800 155.934,121.099 156.717 C 121.242 157.093,121.667 157.731,122.042 158.135 C 122.418 158.540,122.857 159.710,123.018 160.735 C 123.550 164.122,123.463 330.112,122.929 330.290 C 122.632 330.389,122.538 330.941,122.675 331.785 C 123.127 334.569,118.258 339.458,115.369 339.121 C 114.616 339.033,114.000 339.104,114.000 339.280 C 114.000 339.456,105.000 339.600,94.000 339.600 C 83.000 339.600,74.000 339.456,74.000 339.280 C 74.000 339.104,73.394 339.031,72.652 339.118 C 71.254 339.281,67.223 337.103,67.207 336.175 C 67.203 335.942,66.840 335.364,66.400 334.892 C 65.960 334.420,65.600 333.587,65.600 333.040 C 65.600 332.494,65.420 331.936,65.200 331.800 C 64.646 331.458,64.646 160.942,65.200 160.600 C 65.420 160.464,65.600 159.994,65.600 159.555 C 65.600 157.669,69.218 154.000,71.078 154.000 C 71.585 154.000,72.000 153.820,72.000 153.600 C 72.000 153.338,79.592 153.200,93.976 153.200 C 108.196 153.200,116.040 153.341,116.200 153.600 " stroke="none" fill="#fcfcfc" fill-rule="evenodd"></path><path id="path1" d="M87.600 61.600 C 87.600 61.822,88.667 62.000,90.000 62.000 C 91.333 62.000,92.400 61.822,92.400 61.600 C 92.400 61.378,91.333 61.200,90.000 61.200 C 88.667 61.200,87.600 61.378,87.600 61.600 M95.600 61.600 C 95.600 61.822,96.667 62.000,98.000 62.000 C 99.333 62.000,100.400 61.822,100.400 61.600 C 100.400 61.378,99.333 61.200,98.000 61.200 C 96.667 61.200,95.600 61.378,95.600 61.600 M85.000 62.400 C 84.864 62.620,84.223 62.800,83.576 62.800 C 82.929 62.800,82.400 62.980,82.400 63.200 C 82.400 63.420,82.940 63.600,83.600 63.600 C 84.260 63.600,84.800 63.420,84.800 63.200 C 84.800 62.980,85.340 62.800,86.000 62.800 C 86.660 62.800,87.200 62.620,87.200 62.400 C 87.200 62.180,86.761 62.000,86.224 62.000 C 85.687 62.000,85.136 62.180,85.000 62.400 M101.200 62.400 C 101.200 62.620,101.650 62.800,102.200 62.800 C 102.750 62.800,103.200 62.620,103.200 62.400 C 103.200 62.180,102.750 62.000,102.200 62.000 C 101.650 62.000,101.200 62.180,101.200 62.400 M103.600 63.200 C 103.600 63.420,104.050 63.600,104.600 63.600 C 105.150 63.600,105.600 63.420,105.600 63.200 C 105.600 62.980,105.150 62.800,104.600 62.800 C 104.050 62.800,103.600 62.980,103.600 63.200 M106.000 64.000 C 106.000 64.220,106.360 64.400,106.800 64.400 C 107.240 64.400,107.600 64.546,107.600 64.725 C 107.600 64.904,108.230 65.298,109.000 65.600 C 109.770 65.902,110.400 66.296,110.400 66.475 C 110.400 66.654,110.670 66.800,110.999 66.800 C 111.329 66.800,112.363 67.520,113.297 68.400 C 114.231 69.280,115.149 70.000,115.337 70.000 C 115.525 70.000,116.183 70.540,116.800 71.200 C 117.417 71.860,118.029 72.400,118.160 72.400 C 118.733 72.400,118.327 71.326,117.551 70.788 C 117.084 70.465,116.467 69.975,116.180 69.700 C 115.892 69.425,115.537 69.200,115.389 69.200 C 115.242 69.200,114.644 68.693,114.060 68.073 C 113.477 67.453,112.415 66.689,111.700 66.375 C 110.985 66.062,110.400 65.669,110.400 65.502 C 110.400 65.336,110.130 65.200,109.800 65.200 C 109.470 65.200,109.200 65.020,109.200 64.800 C 109.200 64.580,108.840 64.400,108.400 64.400 C 107.960 64.400,107.600 64.220,107.600 64.000 C 107.600 63.780,107.240 63.600,106.800 63.600 C 106.360 63.600,106.000 63.780,106.000 64.000 M79.200 64.800 C 79.200 65.020,78.840 65.200,78.400 65.200 C 77.960 65.200,77.600 65.380,77.600 65.600 C 77.600 65.820,77.322 66.000,76.982 66.000 C 76.257 66.000,74.203 67.937,74.555 68.288 C 74.687 68.420,75.132 68.139,75.544 67.664 C 75.957 67.189,76.588 66.800,76.947 66.800 C 77.306 66.800,77.600 66.620,77.600 66.400 C 77.600 66.180,77.883 66.000,78.229 66.000 C 78.835 66.000,80.000 65.098,80.000 64.629 C 80.000 64.503,79.820 64.400,79.600 64.400 C 79.380 64.400,79.200 64.580,79.200 64.800 M70.272 71.155 C 68.802 72.671,67.600 74.134,67.600 74.408 C 67.600 74.682,67.211 75.243,66.736 75.656 C 66.261 76.068,65.995 76.528,66.145 76.678 C 66.295 76.828,66.819 76.426,67.309 75.785 C 67.799 75.143,69.505 73.309,71.100 71.709 C 72.695 70.109,74.000 68.710,74.000 68.600 C 74.000 67.813,72.547 68.808,70.272 71.155 M118.643 72.730 C 118.316 73.260,121.045 76.288,121.468 75.865 C 121.601 75.732,121.175 75.123,120.521 74.512 C 119.867 73.900,119.245 73.139,119.139 72.820 C 118.994 72.381,118.872 72.359,118.643 72.730 M121.600 77.000 C 121.600 77.330,121.780 77.600,122.000 77.600 C 122.220 77.600,122.400 77.330,122.400 77.000 C 122.400 76.670,122.220 76.400,122.000 76.400 C 121.780 76.400,121.600 76.670,121.600 77.000 M122.400 78.600 C 122.400 78.930,122.580 79.200,122.800 79.200 C 123.020 79.200,123.200 79.560,123.200 80.000 C 123.200 80.440,123.380 80.800,123.600 80.800 C 123.820 80.800,124.000 81.160,124.000 81.600 C 124.000 82.040,124.180 82.400,124.400 82.400 C 124.620 82.400,124.800 82.040,124.800 81.600 C 124.800 81.160,124.620 80.800,124.400 80.800 C 124.180 80.800,124.000 80.440,124.000 80.000 C 124.000 79.560,123.820 79.200,123.600 79.200 C 123.380 79.200,123.200 78.930,123.200 78.600 C 123.200 78.270,123.020 78.000,122.800 78.000 C 122.580 78.000,122.400 78.270,122.400 78.600 M64.400 79.400 C 64.400 79.730,64.220 80.000,64.000 80.000 C 63.780 80.000,63.600 80.360,63.600 80.800 C 63.600 81.240,63.420 81.600,63.200 81.600 C 62.980 81.600,62.800 82.140,62.800 82.800 C 62.800 83.460,62.620 84.000,62.400 84.000 C 62.180 84.000,62.000 84.540,62.000 85.200 C 62.000 85.860,62.180 86.400,62.400 86.400 C 62.620 86.400,62.800 85.871,62.800 85.224 C 62.800 84.577,62.980 83.936,63.200 83.800 C 63.420 83.664,63.600 83.113,63.600 82.576 C 63.600 82.039,63.780 81.600,64.000 81.600 C 64.220 81.600,64.400 81.240,64.400 80.800 C 64.400 80.360,64.580 80.000,64.800 80.000 C 65.020 80.000,65.200 79.730,65.200 79.400 C 65.200 79.070,65.020 78.800,64.800 78.800 C 64.580 78.800,64.400 79.070,64.400 79.400 M124.800 83.454 C 124.800 84.528,125.701 87.200,126.063 87.200 C 126.248 87.200,126.400 86.750,126.400 86.200 C 126.400 85.650,126.220 85.200,126.000 85.200 C 125.780 85.200,125.600 84.660,125.600 84.000 C 125.600 83.340,125.420 82.800,125.200 82.800 C 124.980 82.800,124.800 83.094,124.800 83.454 M61.200 88.200 C 61.200 88.970,61.380 89.600,61.600 89.600 C 61.820 89.600,62.000 88.970,62.000 88.200 C 62.000 87.430,61.820 86.800,61.600 86.800 C 61.380 86.800,61.200 87.430,61.200 88.200 M126.093 90.200 C 126.146 91.686,126.338 92.400,126.685 92.400 C 127.042 92.400,127.200 91.726,127.200 90.200 C 127.200 88.523,127.059 88.000,126.607 88.000 C 126.146 88.000,126.032 88.488,126.093 90.200 M60.400 94.200 C 60.400 95.190,60.580 96.000,60.800 96.000 C 61.020 96.000,61.200 95.190,61.200 94.200 C 61.200 93.210,61.020 92.400,60.800 92.400 C 60.580 92.400,60.400 93.210,60.400 94.200 M126.355 95.676 C 125.915 96.893,126.094 100.400,126.596 100.400 C 127.303 100.400,127.487 96.225,126.800 95.800 C 126.580 95.664,126.380 95.608,126.355 95.676 M61.200 100.400 C 61.200 101.280,61.380 102.000,61.600 102.000 C 61.820 102.000,62.000 102.540,62.000 103.200 C 62.000 103.860,62.180 104.400,62.400 104.400 C 62.620 104.400,62.800 103.961,62.800 103.424 C 62.800 102.887,62.620 102.336,62.400 102.200 C 62.180 102.064,62.000 101.243,62.000 100.376 C 62.000 99.509,61.820 98.800,61.600 98.800 C 61.380 98.800,61.200 99.520,61.200 100.400 M125.569 101.500 C 125.553 101.665,125.480 102.103,125.409 102.472 C 125.337 102.842,125.531 103.241,125.839 103.360 C 126.243 103.514,126.400 103.241,126.400 102.387 C 126.400 101.387,125.661 100.597,125.569 101.500 M124.800 104.776 C 124.800 105.423,124.620 106.064,124.400 106.200 C 124.180 106.336,124.000 106.797,124.000 107.224 C 124.000 107.651,124.180 108.000,124.400 108.000 C 124.620 108.000,124.800 107.550,124.800 107.000 C 124.800 106.450,124.980 106.000,125.200 106.000 C 125.420 106.000,125.600 105.460,125.600 104.800 C 125.600 104.140,125.420 103.600,125.200 103.600 C 124.980 103.600,124.800 104.129,124.800 104.776 M62.800 106.000 C 62.800 106.440,62.980 106.800,63.200 106.800 C 63.420 106.800,63.600 107.160,63.600 107.600 C 63.600 108.040,63.780 108.400,64.000 108.400 C 64.220 108.400,64.400 108.760,64.400 109.200 C 64.400 109.640,64.536 110.000,64.702 110.000 C 64.869 110.000,65.244 110.540,65.536 111.200 C 66.099 112.471,66.800 112.804,66.800 111.800 C 66.800 111.470,66.620 111.200,66.400 111.200 C 66.180 111.200,66.000 110.930,66.000 110.600 C 66.000 110.270,65.820 110.000,65.600 110.000 C 65.380 110.000,65.200 109.640,65.200 109.200 C 65.200 108.760,65.065 108.399,64.900 108.397 C 64.541 108.393,63.600 106.456,63.600 105.720 C 63.600 105.434,63.420 105.200,63.200 105.200 C 62.980 105.200,62.800 105.560,62.800 106.000 M122.900 108.998 C 122.625 109.311,122.400 109.754,122.400 109.983 C 122.400 110.212,122.220 110.400,122.000 110.400 C 121.780 110.400,121.600 110.760,121.600 111.200 C 121.600 111.640,121.420 112.000,121.200 112.000 C 120.980 112.000,120.800 112.270,120.800 112.600 C 120.800 112.930,120.620 113.200,120.400 113.200 C 120.180 113.200,120.000 113.383,120.000 113.606 C 120.000 114.075,114.168 120.000,113.706 120.000 C 113.314 120.001,111.200 121.811,111.200 122.147 C 111.200 122.711,112.260 122.349,112.800 121.600 C 113.117 121.160,113.515 120.800,113.684 120.800 C 114.515 120.800,120.800 114.515,120.800 113.684 C 120.800 113.515,121.160 113.117,121.600 112.800 C 122.040 112.483,122.400 111.903,122.400 111.512 C 122.400 111.120,122.580 110.800,122.800 110.800 C 123.020 110.800,123.200 110.440,123.200 110.000 C 123.200 109.560,123.380 109.200,123.600 109.200 C 123.820 109.200,124.000 109.020,124.000 108.800 C 124.000 108.237,123.489 108.329,122.900 108.998 M66.800 113.231 C 66.800 113.469,67.520 114.354,68.400 115.200 C 69.280 116.046,70.000 116.854,70.000 116.997 C 70.000 117.335,71.065 118.400,71.403 118.400 C 71.546 118.400,72.354 119.120,73.200 120.000 C 74.768 121.632,75.200 121.895,75.200 121.218 C 75.200 120.681,73.449 118.992,72.011 118.143 C 71.345 117.749,70.800 117.225,70.800 116.977 C 70.800 116.510,67.461 112.800,67.040 112.800 C 66.908 112.800,66.800 112.994,66.800 113.231 M75.600 122.000 C 75.600 122.220,75.870 122.400,76.200 122.400 C 76.530 122.400,76.800 122.580,76.800 122.800 C 76.800 123.020,77.160 123.200,77.600 123.200 C 78.040 123.200,78.400 123.380,78.400 123.600 C 78.400 123.820,78.760 124.000,79.200 124.000 C 79.640 124.000,80.000 124.180,80.000 124.400 C 80.000 124.620,80.360 124.800,80.800 124.800 C 81.240 124.800,81.600 124.980,81.600 125.200 C 81.600 125.420,82.061 125.600,82.624 125.600 C 83.204 125.600,83.540 125.427,83.400 125.200 C 83.264 124.980,82.803 124.800,82.376 124.800 C 81.949 124.800,81.600 124.620,81.600 124.400 C 81.600 124.180,81.240 124.000,80.800 124.000 C 80.360 124.000,80.000 123.820,80.000 123.600 C 80.000 123.380,79.640 123.200,79.200 123.200 C 78.760 123.200,78.400 123.020,78.400 122.800 C 78.400 122.580,78.040 122.400,77.600 122.400 C 77.160 122.400,76.800 122.220,76.800 122.000 C 76.800 121.780,76.530 121.600,76.200 121.600 C 75.870 121.600,75.600 121.780,75.600 122.000 M109.600 122.800 C 109.600 123.020,109.330 123.200,109.000 123.200 C 108.670 123.200,108.400 123.380,108.400 123.600 C 108.400 123.820,108.670 124.000,109.000 124.000 C 109.330 124.000,109.600 123.820,109.600 123.600 C 109.600 123.380,109.870 123.200,110.200 123.200 C 110.530 123.200,110.800 123.020,110.800 122.800 C 110.800 122.580,110.530 122.400,110.200 122.400 C 109.870 122.400,109.600 122.580,109.600 122.800 M106.800 124.400 C 106.800 124.620,106.416 124.800,105.946 124.800 C 104.712 124.800,102.000 125.668,102.000 126.063 C 102.000 126.248,102.450 126.400,103.000 126.400 C 103.550 126.400,104.000 126.220,104.000 126.000 C 104.000 125.780,104.630 125.600,105.400 125.600 C 106.170 125.600,106.800 125.420,106.800 125.200 C 106.800 124.980,107.070 124.800,107.400 124.800 C 107.730 124.800,108.000 124.620,108.000 124.400 C 108.000 124.180,107.730 124.000,107.400 124.000 C 107.070 124.000,106.800 124.180,106.800 124.400 M84.000 125.842 C 84.000 126.195,84.440 126.400,85.200 126.400 C 85.860 126.400,86.400 126.580,86.400 126.800 C 86.400 127.020,87.109 127.200,87.976 127.200 C 89.429 127.200,90.720 126.480,89.524 126.337 C 89.236 126.303,88.550 126.223,88.000 126.159 C 87.450 126.095,86.325 125.873,85.500 125.664 C 84.302 125.361,84.000 125.397,84.000 125.842 M98.199 126.335 C 97.766 126.767,98.558 127.200,99.781 127.200 C 100.612 127.200,101.203 126.968,101.351 126.584 C 101.574 126.004,98.753 125.780,98.199 126.335 M260.400 149.200 C 260.400 149.457,264.333 149.600,271.400 149.600 C 278.467 149.600,282.400 149.457,282.400 149.200 C 282.400 148.943,278.467 148.800,271.400 148.800 C 264.333 148.800,260.400 148.943,260.400 149.200 M255.200 150.000 C 255.200 150.220,255.819 150.400,256.576 150.400 C 257.333 150.400,258.064 150.220,258.200 150.000 C 258.349 149.758,257.804 149.600,256.824 149.600 C 255.931 149.600,255.200 149.780,255.200 150.000 M284.000 150.000 C 284.000 150.220,284.810 150.400,285.800 150.400 C 286.790 150.400,287.600 150.220,287.600 150.000 C 287.600 149.780,286.790 149.600,285.800 149.600 C 284.810 149.600,284.000 149.780,284.000 150.000 M251.600 150.800 C 251.600 151.020,252.129 151.200,252.776 151.200 C 253.423 151.200,254.064 151.020,254.200 150.800 C 254.347 150.562,253.871 150.400,253.024 150.400 C 252.241 150.400,251.600 150.580,251.600 150.800 M288.800 150.800 C 288.800 151.020,289.340 151.200,290.000 151.200 C 290.660 151.200,291.200 151.020,291.200 150.800 C 291.200 150.580,290.660 150.400,290.000 150.400 C 289.340 150.400,288.800 150.580,288.800 150.800 M249.200 151.600 C 249.200 151.820,249.549 152.000,249.976 152.000 C 250.403 152.000,250.864 151.820,251.000 151.600 C 251.140 151.373,250.804 151.200,250.224 151.200 C 249.661 151.200,249.200 151.380,249.200 151.600 M292.000 151.600 C 292.000 151.820,292.540 152.000,293.200 152.000 C 293.860 152.000,294.400 151.820,294.400 151.600 C 294.400 151.380,293.860 151.200,293.200 151.200 C 292.540 151.200,292.000 151.380,292.000 151.600 M246.800 152.400 C 246.800 152.620,247.250 152.800,247.800 152.800 C 248.350 152.800,248.800 152.620,248.800 152.400 C 248.800 152.180,248.350 152.000,247.800 152.000 C 247.250 152.000,246.800 152.180,246.800 152.400 M294.800 152.171 C 294.800 152.446,297.272 153.600,297.861 153.600 C 298.158 153.600,298.400 153.420,298.400 153.200 C 298.400 152.980,298.051 152.800,297.624 152.800 C 297.197 152.800,296.736 152.620,296.600 152.400 C 296.363 152.017,294.800 151.818,294.800 152.171 M244.800 153.247 C 244.800 153.492,244.452 153.602,244.026 153.491 C 243.558 153.369,243.160 153.528,243.020 153.892 C 242.839 154.364,242.986 154.435,243.694 154.216 C 244.192 154.062,245.005 153.839,245.500 153.721 C 246.615 153.455,246.686 152.800,245.600 152.800 C 245.160 152.800,244.800 153.001,244.800 153.247 M73.900 153.487 C 69.543 154.147,75.064 154.400,93.800 154.400 C 112.936 154.400,116.255 154.244,114.167 153.443 C 113.473 153.176,75.676 153.217,73.900 153.487 M161.952 153.912 C 159.911 155.274,158.768 157.200,160.000 157.200 C 160.220 157.200,160.400 156.962,160.400 156.672 C 160.400 156.382,160.851 155.752,161.403 155.272 L 162.406 154.400 187.803 154.400 C 210.905 154.400,215.192 154.234,212.300 153.449 C 209.841 152.782,163.000 153.213,161.952 153.912 M298.800 154.000 C 298.800 154.220,299.250 154.400,299.800 154.400 C 300.350 154.400,300.800 154.220,300.800 154.000 C 300.800 153.780,300.350 153.600,299.800 153.600 C 299.250 153.600,298.800 153.780,298.800 154.000 M70.511 154.517 C 70.340 154.782,69.688 155.270,69.063 155.600 C 68.438 155.930,67.628 156.740,67.263 157.400 C 66.898 158.060,66.465 158.660,66.300 158.733 C 65.850 158.933,65.938 160.400,66.400 160.400 C 66.620 160.400,66.800 160.040,66.800 159.600 C 66.800 159.160,66.980 158.800,67.200 158.800 C 67.420 158.800,67.600 158.562,67.600 158.272 C 67.600 157.741,69.350 156.008,69.903 155.991 C 70.767 155.965,72.082 154.517,71.459 154.278 C 71.108 154.143,70.681 154.251,70.511 154.517 M213.815 154.375 C 213.674 154.603,213.928 155.186,214.380 155.670 C 215.191 156.541,215.200 156.542,215.200 155.724 C 215.200 154.732,214.198 153.756,213.815 154.375 M241.320 154.500 C 241.144 154.775,240.820 155.020,240.600 155.043 C 239.661 155.146,238.400 155.720,238.400 156.047 C 238.400 156.241,238.164 156.400,237.875 156.400 C 237.587 156.400,237.002 156.715,236.575 157.100 C 236.149 157.485,235.260 158.070,234.600 158.400 C 233.940 158.730,232.739 159.675,231.931 160.500 C 231.124 161.325,230.266 162.000,230.026 162.000 C 229.568 162.000,222.800 168.599,222.800 169.046 C 222.800 169.187,222.170 170.000,221.400 170.853 C 220.630 171.705,220.000 172.672,220.000 173.001 C 220.000 173.331,219.850 173.600,219.668 173.600 C 219.485 173.600,219.080 174.095,218.768 174.700 C 218.456 175.305,218.026 175.925,217.812 176.078 C 217.598 176.231,217.544 176.478,217.693 176.626 C 218.012 176.946,219.200 175.845,219.200 175.229 C 219.200 174.993,219.380 174.800,219.600 174.800 C 219.820 174.800,220.000 174.530,220.000 174.200 C 220.000 173.870,220.180 173.600,220.400 173.600 C 220.620 173.600,220.800 173.396,220.800 173.147 C 220.800 172.898,221.124 172.403,221.519 172.047 C 221.914 171.691,222.675 170.770,223.208 170.000 C 224.565 168.042,224.722 167.856,227.278 165.183 C 228.531 163.872,229.724 162.800,229.930 162.800 C 230.135 162.800,231.045 162.080,231.952 161.200 C 232.859 160.320,233.779 159.600,233.996 159.600 C 234.213 159.600,234.759 159.285,235.208 158.900 C 235.658 158.515,236.065 158.285,236.113 158.388 C 236.161 158.491,237.010 158.026,238.000 157.353 C 238.990 156.681,240.385 155.877,241.100 155.568 C 241.815 155.258,242.400 154.779,242.400 154.502 C 242.400 153.855,241.733 153.854,241.320 154.500 M301.456 154.278 C 301.005 154.728,301.181 155.200,301.800 155.200 C 302.130 155.200,302.400 155.031,302.400 154.824 C 302.400 154.319,301.775 153.958,301.456 154.278 M116.000 154.800 C 116.000 155.020,116.360 155.200,116.800 155.200 C 117.240 155.200,117.600 155.351,117.600 155.536 C 117.600 155.720,118.058 156.080,118.619 156.336 C 119.862 156.902,120.000 156.909,120.000 156.400 C 120.000 156.180,119.820 156.000,119.600 156.000 C 119.380 156.000,118.840 155.640,118.400 155.200 C 117.567 154.367,116.000 154.106,116.000 154.800 M303.056 155.078 C 302.605 155.528,302.781 156.000,303.400 156.000 C 303.730 156.000,304.000 155.831,304.000 155.624 C 304.000 155.119,303.375 154.758,303.056 155.078 M304.400 156.167 C 304.400 156.515,304.685 156.800,305.033 156.800 C 305.740 156.800,305.617 155.939,304.875 155.692 C 304.614 155.605,304.400 155.818,304.400 156.167 M306.000 156.939 C 306.000 157.236,306.765 157.818,307.700 158.234 C 308.635 158.650,309.749 159.307,310.175 159.695 C 310.602 160.083,311.115 160.400,311.315 160.400 C 311.515 160.400,312.183 160.940,312.800 161.600 C 313.417 162.260,314.124 162.800,314.371 162.800 C 314.969 162.800,324.724 172.627,326.000 174.515 C 326.550 175.329,327.225 175.996,327.500 175.997 C 328.272 176.001,328.105 175.619,326.800 174.400 C 326.140 173.783,325.600 173.071,325.600 172.817 C 325.600 172.563,324.475 171.271,323.100 169.945 C 321.725 168.618,319.320 166.288,317.756 164.767 C 316.192 163.245,314.747 162.000,314.544 162.000 C 314.342 162.000,313.917 161.640,313.600 161.200 C 313.283 160.760,312.793 160.400,312.512 160.400 C 312.230 160.400,312.000 160.220,312.000 160.000 C 312.000 159.780,311.730 159.600,311.400 159.600 C 311.070 159.600,310.800 159.420,310.800 159.200 C 310.800 158.980,310.564 158.800,310.275 158.800 C 309.987 158.800,309.355 158.431,308.870 157.980 C 308.386 157.528,307.811 157.270,307.592 157.405 C 307.373 157.540,307.086 157.369,306.954 157.025 C 306.660 156.259,306.000 156.199,306.000 156.939 M120.000 157.551 C 120.000 158.053,121.174 158.960,121.457 158.676 C 121.588 158.545,121.417 158.160,121.076 157.819 C 120.381 157.124,120.000 157.029,120.000 157.551 M215.293 167.900 L 215.200 178.400 216.400 178.400 C 217.858 178.400,217.952 177.889,216.607 177.276 L 215.614 176.824 215.500 167.112 L 215.385 157.400 215.293 167.900 M121.600 160.800 C 121.600 161.460,121.780 162.000,122.000 162.000 C 122.220 162.000,122.400 161.460,122.400 160.800 C 122.400 160.140,122.220 159.600,122.000 159.600 C 121.780 159.600,121.600 160.140,121.600 160.800 M65.200 246.200 C 65.200 302.333,65.335 330.800,65.600 330.800 C 65.865 330.800,66.000 302.333,66.000 246.200 C 66.000 190.067,65.865 161.600,65.600 161.600 C 65.335 161.600,65.200 190.067,65.200 246.200 M327.613 176.700 C 327.641 177.378,328.779 178.460,329.193 178.204 C 329.488 178.022,329.340 177.669,328.759 177.164 C 327.795 176.328,327.594 176.247,327.613 176.700 M329.200 179.600 C 329.200 179.820,329.380 180.000,329.600 180.000 C 329.820 180.000,330.000 180.283,330.000 180.629 C 330.000 181.281,331.111 182.623,331.406 182.327 C 331.736 181.998,330.224 179.200,329.717 179.200 C 329.432 179.200,329.200 179.380,329.200 179.600 M331.600 183.205 C 331.600 183.428,331.757 183.923,331.950 184.305 C 333.448 187.280,334.000 188.553,334.000 189.038 C 334.000 189.347,334.180 189.600,334.400 189.600 C 334.620 189.600,334.800 189.150,334.800 188.600 C 334.800 188.050,334.620 187.600,334.400 187.600 C 334.180 187.600,334.000 187.240,334.000 186.800 C 334.000 186.360,333.820 186.000,333.600 186.000 C 333.380 186.000,333.200 185.640,333.200 185.200 C 333.200 184.760,333.020 184.400,332.800 184.400 C 332.580 184.400,332.400 184.040,332.400 183.600 C 332.400 183.160,332.220 182.800,332.000 182.800 C 331.780 182.800,331.600 182.982,331.600 183.205 M334.800 190.800 C 334.800 191.240,334.980 191.600,335.200 191.600 C 335.420 191.600,335.600 191.240,335.600 190.800 C 335.600 190.360,335.420 190.000,335.200 190.000 C 334.980 190.000,334.800 190.360,334.800 190.800 M335.600 193.000 C 335.600 193.550,335.780 194.000,336.000 194.000 C 336.220 194.000,336.400 193.550,336.400 193.000 C 336.400 192.450,336.220 192.000,336.000 192.000 C 335.780 192.000,335.600 192.450,335.600 193.000 M336.400 195.576 C 336.400 196.223,336.580 196.864,336.800 197.000 C 337.038 197.147,337.200 196.671,337.200 195.824 C 337.200 195.041,337.020 194.400,336.800 194.400 C 336.580 194.400,336.400 194.929,336.400 195.576 M337.200 198.600 C 337.200 199.150,337.380 199.600,337.600 199.600 C 337.820 199.600,338.000 199.150,338.000 198.600 C 338.000 198.050,337.820 197.600,337.600 197.600 C 337.380 197.600,337.200 198.050,337.200 198.600 M245.200 199.200 C 245.200 199.441,246.875 199.600,249.424 199.600 C 252.137 199.600,253.559 199.457,253.400 199.200 C 253.262 198.977,251.396 198.800,249.176 198.800 C 246.792 198.800,245.200 198.960,245.200 199.200 M240.200 200.090 C 239.540 200.312,238.687 200.653,238.305 200.847 C 237.923 201.041,237.236 201.200,236.777 201.200 C 235.827 201.200,234.551 202.295,235.007 202.719 C 235.173 202.874,235.390 202.775,235.488 202.500 C 235.586 202.225,236.192 202.000,236.833 202.000 C 237.475 202.000,238.000 201.820,238.000 201.600 C 238.000 201.380,238.540 201.200,239.200 201.200 C 239.860 201.200,240.400 201.020,240.400 200.800 C 240.400 200.580,241.041 200.400,241.824 200.400 C 242.671 200.400,243.147 200.238,243.000 200.000 C 242.702 199.518,241.812 199.546,240.200 200.090 M256.000 200.000 C 256.000 200.220,256.450 200.400,257.000 200.400 C 257.550 200.400,258.000 200.220,258.000 200.000 C 258.000 199.780,257.550 199.600,257.000 199.600 C 256.450 199.600,256.000 199.780,256.000 200.000 M258.600 200.800 C 258.736 201.020,259.197 201.200,259.624 201.200 C 260.051 201.200,260.400 201.020,260.400 200.800 C 260.400 200.580,259.939 200.400,259.376 200.400 C 258.796 200.400,258.460 200.573,258.600 200.800 M261.200 201.600 C 261.200 201.820,261.560 202.000,262.000 202.000 C 262.440 202.000,262.800 202.180,262.800 202.400 C 262.800 202.620,263.160 202.800,263.600 202.800 C 264.040 202.800,264.400 202.980,264.400 203.200 C 264.400 203.420,264.760 203.600,265.200 203.600 C 265.640 203.600,266.000 203.780,266.000 204.000 C 266.000 204.220,266.270 204.400,266.600 204.400 C 266.930 204.400,267.200 204.537,267.200 204.704 C 267.200 205.115,268.826 206.107,269.081 205.852 C 269.407 205.527,267.299 203.600,266.618 203.600 C 266.278 203.600,266.000 203.420,266.000 203.200 C 266.000 202.980,265.640 202.800,265.200 202.800 C 264.760 202.800,264.400 202.620,264.400 202.400 C 264.400 202.180,264.040 202.000,263.600 202.000 C 263.160 202.000,262.800 201.820,262.800 201.600 C 262.800 201.380,262.440 201.200,262.000 201.200 C 261.560 201.200,261.200 201.380,261.200 201.600 M338.000 203.400 C 338.000 204.390,338.180 205.200,338.400 205.200 C 338.620 205.200,338.800 204.390,338.800 203.400 C 338.800 202.410,338.620 201.600,338.400 201.600 C 338.180 201.600,338.000 202.410,338.000 203.400 M233.200 203.200 C 233.200 203.420,232.840 203.600,232.400 203.600 C 231.960 203.600,231.600 203.780,231.600 204.000 C 231.600 204.220,231.325 204.400,230.989 204.400 C 230.436 204.400,226.800 207.689,226.800 208.189 C 226.800 208.816,227.844 208.212,229.200 206.800 C 230.046 205.920,230.931 205.200,231.169 205.200 C 231.406 205.200,231.600 205.054,231.600 204.875 C 231.600 204.696,232.230 204.302,233.000 204.000 C 234.440 203.435,234.863 202.800,233.800 202.800 C 233.470 202.800,233.200 202.980,233.200 203.200 M269.600 206.207 C 269.600 206.321,270.767 207.581,272.193 209.007 C 273.619 210.433,274.879 211.600,274.993 211.600 C 275.688 211.600,274.895 210.431,272.797 208.366 C 270.675 206.276,269.600 205.550,269.600 206.207 M338.800 272.400 C 338.800 314.800,338.665 336.400,338.400 336.400 C 338.180 336.400,338.000 336.760,338.000 337.200 C 338.000 337.640,338.180 338.000,338.400 338.000 C 338.620 338.000,338.800 337.640,338.800 337.200 C 338.800 336.760,338.980 336.400,339.200 336.400 C 339.465 336.400,339.600 314.800,339.600 272.400 C 339.600 230.000,339.465 208.400,339.200 208.400 C 338.935 208.400,338.800 230.000,338.800 272.400 M224.200 210.533 C 222.716 212.174,222.285 212.818,222.516 213.050 C 222.802 213.336,225.600 210.581,225.600 210.013 C 225.600 209.371,225.075 209.565,224.200 210.533 M275.200 212.325 C 275.200 212.503,275.560 213.036,276.000 213.508 C 276.440 213.980,276.800 214.554,276.800 214.783 C 276.800 215.012,276.980 215.200,277.200 215.200 C 277.420 215.200,277.600 215.560,277.600 216.000 C 277.600 216.440,277.780 216.800,278.000 216.800 C 278.220 216.800,278.400 217.070,278.400 217.400 C 278.400 217.730,278.580 218.000,278.800 218.000 C 279.020 218.000,279.200 217.730,279.200 217.400 C 279.200 217.070,279.020 216.800,278.800 216.800 C 278.580 216.800,278.400 216.440,278.400 216.000 C 278.400 215.560,278.220 215.200,278.000 215.200 C 277.780 215.200,277.600 214.922,277.600 214.582 C 277.600 214.242,277.158 213.522,276.618 212.982 C 275.595 211.958,275.200 211.775,275.200 212.325 M221.300 214.198 C 221.025 214.511,220.800 215.044,220.800 215.383 C 220.800 215.722,220.620 216.000,220.400 216.000 C 220.180 216.000,220.000 216.360,220.000 216.800 C 220.000 217.240,219.820 217.600,219.600 217.600 C 219.380 217.600,219.200 217.960,219.200 218.400 C 219.200 218.840,219.020 219.200,218.800 219.200 C 218.580 219.200,218.400 219.650,218.400 220.200 C 218.400 220.750,218.580 221.200,218.800 221.200 C 219.020 221.200,219.200 220.750,219.200 220.200 C 219.200 219.650,219.380 219.200,219.600 219.200 C 219.820 219.200,220.000 218.840,220.000 218.400 C 220.000 217.960,220.146 217.600,220.325 217.600 C 220.504 217.600,220.898 216.970,221.200 216.200 C 221.502 215.430,221.896 214.800,222.075 214.800 C 222.254 214.800,222.400 214.530,222.400 214.200 C 222.400 213.454,221.956 213.453,221.300 214.198 M279.200 219.200 C 279.200 219.640,279.380 220.000,279.600 220.000 C 279.820 220.000,280.000 220.540,280.000 221.200 C 280.000 221.860,280.180 222.400,280.400 222.400 C 280.620 222.400,280.800 221.961,280.800 221.424 C 280.800 220.887,280.620 220.336,280.400 220.200 C 280.180 220.064,280.000 219.603,280.000 219.176 C 280.000 218.749,279.820 218.400,279.600 218.400 C 279.380 218.400,279.200 218.760,279.200 219.200 M217.600 222.600 C 217.600 223.150,217.780 223.600,218.000 223.600 C 218.220 223.600,218.400 223.150,218.400 222.600 C 218.400 222.050,218.220 221.600,218.000 221.600 C 217.780 221.600,217.600 222.050,217.600 222.600 M280.800 224.000 C 280.800 224.440,280.980 224.800,281.200 224.800 C 281.420 224.800,281.600 224.440,281.600 224.000 C 281.600 223.560,281.420 223.200,281.200 223.200 C 280.980 223.200,280.800 223.560,280.800 224.000 M217.067 224.267 C 216.643 224.690,216.757 227.200,217.200 227.200 C 217.420 227.200,217.600 226.480,217.600 225.600 C 217.600 223.965,217.534 223.800,217.067 224.267 M281.600 229.200 C 281.600 230.800,281.771 232.000,282.000 232.000 C 282.229 232.000,282.400 230.800,282.400 229.200 C 282.400 227.600,282.229 226.400,282.000 226.400 C 281.771 226.400,281.600 227.600,281.600 229.200 M216.267 230.267 C 215.816 230.718,215.948 336.400,216.400 336.400 C 216.665 336.400,216.800 318.400,216.800 283.200 C 216.800 253.940,216.740 230.000,216.667 230.000 C 216.593 230.000,216.413 230.120,216.267 230.267 M121.600 331.600 C 121.600 332.480,121.420 333.200,121.200 333.200 C 120.980 333.200,120.800 333.470,120.800 333.800 C 120.800 334.130,120.620 334.400,120.400 334.400 C 120.180 334.400,120.000 334.593,120.000 334.829 C 120.000 335.382,118.982 336.400,118.429 336.400 C 118.193 336.400,118.000 336.580,118.000 336.800 C 118.000 337.020,117.730 337.200,117.400 337.200 C 117.070 337.200,116.800 337.380,116.800 337.600 C 116.800 337.820,117.070 338.000,117.400 338.000 C 117.730 338.000,118.000 337.820,118.000 337.600 C 118.000 337.380,118.188 337.200,118.418 337.200 C 118.961 337.200,120.800 335.361,120.800 334.818 C 120.800 334.588,120.980 334.400,121.200 334.400 C 121.420 334.400,121.600 334.130,121.600 333.800 C 121.600 333.470,121.780 333.200,122.000 333.200 C 122.220 333.200,122.400 332.480,122.400 331.600 C 122.400 330.720,122.220 330.000,122.000 330.000 C 121.780 330.000,121.600 330.720,121.600 331.600 M66.000 332.824 C 66.000 333.537,66.167 333.944,66.400 333.800 C 66.620 333.664,66.800 333.113,66.800 332.576 C 66.800 332.039,66.620 331.600,66.400 331.600 C 66.180 331.600,66.000 332.151,66.000 332.824 M66.800 334.353 C 66.800 335.027,70.099 338.000,70.847 338.000 C 71.261 338.000,71.600 338.180,71.600 338.400 C 71.600 338.620,72.241 338.800,73.024 338.800 C 73.871 338.800,74.347 338.638,74.200 338.400 C 74.064 338.180,73.511 338.000,72.971 338.000 C 71.673 338.000,70.518 337.321,68.716 335.500 C 67.201 333.968,66.800 333.729,66.800 334.353 M159.600 335.818 C 159.600 336.378,160.042 337.278,160.582 337.818 C 161.576 338.812,162.800 339.133,162.800 338.400 C 162.800 338.180,162.517 338.000,162.171 338.000 C 161.227 338.000,160.400 336.986,160.400 335.829 C 160.400 335.263,160.220 334.800,160.000 334.800 C 159.780 334.800,159.600 335.258,159.600 335.818 M282.413 336.700 C 282.469 337.951,285.600 339.622,285.600 338.400 C 285.600 338.180,285.280 338.000,284.888 338.000 C 284.497 338.000,283.917 337.640,283.600 337.200 C 283.024 336.401,282.388 336.133,282.413 336.700 M215.200 337.400 C 215.200 337.730,215.380 338.000,215.600 338.000 C 215.820 338.000,216.000 337.730,216.000 337.400 C 216.000 337.070,215.820 336.800,215.600 336.800 C 215.380 336.800,215.200 337.070,215.200 337.400 M113.600 338.400 C 113.600 338.620,114.230 338.800,115.000 338.800 C 115.770 338.800,116.400 338.620,116.400 338.400 C 116.400 338.180,115.770 338.000,115.000 338.000 C 114.230 338.000,113.600 338.180,113.600 338.400 M213.600 338.400 C 213.600 338.620,213.870 338.800,214.200 338.800 C 214.530 338.800,214.800 338.620,214.800 338.400 C 214.800 338.180,214.530 338.000,214.200 338.000 C 213.870 338.000,213.600 338.180,213.600 338.400 M336.400 338.400 C 336.400 338.620,336.670 338.800,337.000 338.800 C 337.330 338.800,337.600 338.620,337.600 338.400 C 337.600 338.180,337.330 338.000,337.000 338.000 C 336.670 338.000,336.400 338.180,336.400 338.400 " stroke="none" fill="#a9a9a9" fill-rule="evenodd"></path><path id="path2" d="M73.800 67.653 C 72.916 68.200,72.792 68.396,73.329 68.398 C 74.013 68.400,75.468 67.310,75.148 67.036 C 75.066 66.966,74.460 67.244,73.800 67.653 M114.800 68.786 C 114.800 69.014,115.070 69.200,115.400 69.200 C 115.730 69.200,116.000 69.361,116.000 69.557 C 116.000 69.754,116.295 70.028,116.657 70.166 C 117.215 70.380,117.235 70.324,116.789 69.787 C 116.048 68.893,114.800 68.265,114.800 68.786 M60.400 91.800 C 60.400 92.130,60.580 92.400,60.800 92.400 C 61.020 92.400,61.200 92.130,61.200 91.800 C 61.200 91.470,61.020 91.200,60.800 91.200 C 60.580 91.200,60.400 91.470,60.400 91.800 M60.400 96.600 C 60.400 96.930,60.580 97.200,60.800 97.200 C 61.020 97.200,61.200 96.930,61.200 96.600 C 61.200 96.270,61.020 96.000,60.800 96.000 C 60.580 96.000,60.400 96.270,60.400 96.600 M126.000 100.800 C 126.000 101.020,126.270 101.200,126.600 101.200 C 126.930 101.200,127.200 101.020,127.200 100.800 C 127.200 100.580,126.930 100.400,126.600 100.400 C 126.270 100.400,126.000 100.580,126.000 100.800 M68.800 115.880 C 68.800 116.066,69.353 116.889,70.029 117.709 C 71.234 119.171,72.000 119.595,72.000 118.800 C 72.000 118.580,71.807 118.400,71.571 118.400 C 71.105 118.400,70.000 117.415,70.000 117.000 C 70.000 116.859,69.730 116.473,69.400 116.143 C 69.070 115.813,68.800 115.695,68.800 115.880 M92.033 127.440 C 92.649 128.182,94.972 128.156,95.600 127.400 C 96.007 126.910,95.983 126.800,95.473 126.800 C 95.129 126.800,94.736 126.980,94.600 127.200 C 94.464 127.420,94.138 127.597,93.876 127.594 C 93.568 127.590,93.597 127.463,93.959 127.234 C 94.341 126.992,94.053 126.880,93.043 126.880 C 91.824 126.880,91.649 126.977,92.033 127.440 M258.800 149.200 C 258.800 149.420,259.160 149.600,259.600 149.600 C 260.040 149.600,260.400 149.420,260.400 149.200 C 260.400 148.980,260.040 148.800,259.600 148.800 C 259.160 148.800,258.800 148.980,258.800 149.200 M298.143 153.000 C 298.473 153.330,298.840 153.600,298.959 153.600 C 299.078 153.600,299.071 153.330,298.945 153.000 C 298.818 152.670,298.451 152.400,298.129 152.400 C 297.621 152.400,297.622 152.480,298.143 153.000 M72.645 153.528 C 72.533 153.708,72.973 153.777,73.621 153.682 C 74.270 153.587,74.800 153.440,74.800 153.355 C 74.800 153.050,72.843 153.207,72.645 153.528 M114.484 153.758 C 114.768 154.065,115.138 154.232,115.307 154.130 C 115.764 153.853,115.240 153.200,114.561 153.200 C 114.074 153.200,114.061 153.300,114.484 153.758 M161.300 153.744 C 160.805 153.989,160.400 154.333,160.400 154.509 C 160.400 154.814,161.098 154.503,162.400 153.620 C 163.181 153.089,162.456 153.172,161.300 153.744 M212.500 153.476 C 212.885 153.576,213.200 153.825,213.200 154.029 C 213.200 154.233,213.402 154.400,213.649 154.400 C 213.959 154.400,213.944 154.215,213.600 153.800 C 213.326 153.470,212.809 153.221,212.451 153.246 C 211.902 153.286,211.909 153.321,212.500 153.476 M215.513 166.700 C 215.631 176.940,215.742 177.600,217.353 177.600 C 217.573 177.600,217.450 177.375,217.080 177.100 C 216.487 176.659,216.395 175.445,216.304 166.833 C 216.239 160.771,216.048 157.016,215.800 156.933 C 215.538 156.845,215.439 160.227,215.513 166.700 M64.996 246.400 C 64.996 292.490,65.043 311.345,65.100 288.300 C 65.157 265.255,65.157 227.545,65.100 204.500 C 65.043 181.455,64.996 200.310,64.996 246.400 M317.601 164.572 C 319.756 166.934,320.885 167.969,321.329 167.987 C 321.509 167.994,321.406 167.775,321.100 167.500 C 320.794 167.225,319.476 166.010,318.173 164.800 L 315.802 162.600 317.601 164.572 M330.815 180.400 C 330.821 180.730,331.090 181.349,331.413 181.776 C 332.168 182.775,332.163 182.405,331.402 180.946 C 331.074 180.316,330.810 180.070,330.815 180.400 M247.891 199.889 C 248.601 199.977,249.861 199.979,250.691 199.892 C 251.521 199.805,250.940 199.733,249.400 199.731 C 247.860 199.729,247.181 199.800,247.891 199.889 M255.200 199.957 C 255.200 200.154,255.485 200.424,255.833 200.557 C 256.811 200.933,256.908 200.851,256.257 200.200 C 255.577 199.520,255.200 199.433,255.200 199.957 M338.800 207.400 C 338.800 207.950,338.980 208.400,339.200 208.400 C 339.420 208.400,339.600 207.950,339.600 207.400 C 339.600 206.850,339.420 206.400,339.200 206.400 C 338.980 206.400,338.800 206.850,338.800 207.400 M226.060 209.042 C 225.331 209.866,225.800 210.257,226.581 209.476 C 226.921 209.136,227.200 208.754,227.200 208.629 C 227.200 208.209,226.606 208.424,226.060 209.042 M217.600 226.133 C 217.600 226.720,217.420 227.200,217.200 227.200 C 216.980 227.200,216.800 227.470,216.800 227.800 C 216.800 228.130,216.972 228.400,217.182 228.400 C 217.627 228.400,218.214 225.681,217.848 225.315 C 217.712 225.178,217.600 225.547,217.600 226.133 M216.898 284.067 C 216.821 325.432,216.696 336.375,216.300 336.535 C 215.908 336.693,215.911 336.744,216.313 336.768 C 217.206 336.823,217.208 336.742,217.101 283.800 L 216.997 231.800 216.898 284.067 M281.600 283.800 C 281.600 318.067,281.735 335.600,282.000 335.600 C 282.265 335.600,282.400 318.067,282.400 283.800 C 282.400 249.533,282.265 232.000,282.000 232.000 C 281.735 232.000,281.600 249.533,281.600 283.800 " stroke="none" fill="#c4c4c4" fill-rule="evenodd"></path><path id="path3" d="M276.305 148.683 C 276.802 148.779,277.522 148.775,277.905 148.675 C 278.287 148.575,277.880 148.496,277.000 148.501 C 276.120 148.505,275.807 148.587,276.305 148.683 M308.000 339.220 C 314.014 339.680,335.600 339.664,335.600 339.200 C 335.600 338.939,330.143 338.822,319.900 338.865 C 309.640 338.907,305.517 339.030,308.000 339.220 " stroke="none" fill="#cccccc" fill-rule="evenodd"></path><path id="path4" d="M93.200 60.800 C 93.200 61.020,93.650 61.200,94.200 61.200 C 94.750 61.200,95.200 61.020,95.200 60.800 C 95.200 60.580,94.750 60.400,94.200 60.400 C 93.650 60.400,93.200 60.580,93.200 60.800 M86.800 61.200 C 86.800 61.420,86.271 61.600,85.624 61.600 C 84.977 61.600,84.336 61.780,84.200 62.000 C 84.064 62.220,83.601 62.400,83.171 62.400 C 82.741 62.400,82.077 62.567,81.695 62.771 C 81.313 62.975,80.685 63.239,80.300 63.358 C 79.915 63.477,79.614 63.806,79.632 64.087 C 79.656 64.489,79.707 64.492,79.865 64.100 C 79.976 63.825,80.502 63.600,81.033 63.600 C 81.565 63.600,82.000 63.420,82.000 63.200 C 82.000 62.980,82.540 62.800,83.200 62.800 C 83.860 62.800,84.400 62.620,84.400 62.400 C 84.400 62.180,84.904 62.000,85.520 62.000 C 86.136 62.000,86.811 61.830,87.020 61.623 C 87.229 61.416,88.390 61.179,89.600 61.097 L 91.800 60.948 89.300 60.874 C 87.851 60.831,86.800 60.968,86.800 61.200 M98.900 61.096 C 100.165 61.175,101.200 61.411,101.200 61.620 C 101.200 61.829,101.740 62.000,102.400 62.000 C 103.060 62.000,103.600 62.180,103.600 62.400 C 103.600 62.620,104.125 62.800,104.767 62.800 C 105.408 62.800,106.024 63.025,106.135 63.300 C 106.256 63.599,106.350 63.518,106.368 63.100 C 106.392 62.585,106.089 62.400,105.224 62.400 C 104.577 62.400,103.936 62.220,103.800 62.000 C 103.664 61.780,103.124 61.600,102.600 61.600 C 102.076 61.600,101.536 61.420,101.400 61.200 C 101.264 60.980,100.128 60.834,98.876 60.876 L 96.600 60.951 98.900 61.096 M109.351 64.452 C 109.400 64.711,109.846 65.073,110.341 65.256 C 110.912 65.468,111.151 65.445,110.997 65.195 C 110.863 64.978,110.508 64.800,110.210 64.800 C 109.911 64.800,109.575 64.615,109.463 64.390 C 109.351 64.165,109.301 64.192,109.351 64.452 M73.762 67.262 L 73.000 68.124 74.100 67.416 C 75.234 66.686,75.449 66.400,74.862 66.400 C 74.676 66.400,74.181 66.788,73.762 67.262 M114.005 67.473 C 114.008 67.653,114.657 68.219,115.448 68.732 C 116.240 69.245,116.772 69.478,116.631 69.251 C 116.241 68.618,113.999 67.101,114.005 67.473 M69.848 70.661 C 69.265 71.244,68.881 71.814,68.994 71.927 C 69.107 72.041,69.245 72.058,69.300 71.967 C 69.355 71.875,69.836 71.305,70.370 70.700 C 71.608 69.295,71.242 69.267,69.848 70.661 M119.993 73.300 C 120.732 74.345,121.405 75.200,121.490 75.200 C 121.808 75.200,120.171 72.721,119.426 72.073 C 119.000 71.703,119.255 72.255,119.993 73.300 M122.327 76.300 C 123.473 78.966,124.231 80.400,124.494 80.400 C 124.662 80.400,124.800 80.649,124.800 80.954 C 124.800 81.259,125.069 82.024,125.398 82.654 C 125.726 83.284,125.996 83.573,125.998 83.295 C 125.999 83.017,125.841 82.477,125.647 82.095 C 125.452 81.713,125.048 80.860,124.747 80.200 C 124.447 79.540,124.102 78.910,123.980 78.800 C 123.858 78.690,123.444 77.925,123.060 77.100 C 122.374 75.625,121.739 74.932,122.327 76.300 M62.900 80.685 C 62.625 81.276,62.400 82.073,62.400 82.456 C 62.400 82.839,62.220 83.264,62.000 83.400 C 61.780 83.536,61.600 84.051,61.600 84.544 C 61.600 85.037,61.406 85.634,61.169 85.871 C 60.932 86.108,60.815 86.819,60.909 87.451 C 61.077 88.581,61.081 88.579,61.140 87.300 C 61.173 86.585,61.380 86.000,61.600 86.000 C 61.820 86.000,62.000 85.460,62.000 84.800 C 62.000 84.140,62.180 83.600,62.400 83.600 C 62.620 83.600,62.800 83.075,62.800 82.433 C 62.800 81.792,63.001 81.200,63.246 81.118 C 63.491 81.036,63.626 80.664,63.546 80.290 C 63.433 79.764,63.287 79.853,62.900 80.685 M125.600 84.351 C 125.600 84.598,125.800 84.800,126.044 84.800 C 126.313 84.800,126.425 85.334,126.329 86.155 C 126.227 87.034,126.326 87.450,126.614 87.339 C 127.198 87.115,126.866 84.952,126.156 84.364 C 125.753 84.029,125.600 84.025,125.600 84.351 M127.314 89.400 C 127.317 90.500,127.395 90.903,127.487 90.295 C 127.579 89.686,127.577 88.786,127.482 88.295 C 127.387 87.803,127.311 88.300,127.314 89.400 M60.137 94.200 C 60.139 95.960,60.209 96.630,60.293 95.689 C 60.378 94.749,60.377 93.309,60.291 92.489 C 60.205 91.670,60.136 92.440,60.137 94.200 M126.868 94.582 C 126.941 95.665,127.074 95.871,127.481 95.533 C 128.215 94.923,128.147 93.200,127.387 93.200 C 126.938 93.200,126.800 93.567,126.868 94.582 M127.267 99.300 C 127.230 100.345,127.020 101.200,126.800 101.200 C 126.580 101.200,126.421 101.785,126.446 102.500 C 126.474 103.286,126.562 103.483,126.667 103.000 C 126.763 102.560,127.025 101.828,127.249 101.373 C 127.473 100.918,127.584 99.838,127.496 98.973 C 127.339 97.441,127.333 97.449,127.267 99.300 M60.864 101.076 C 60.829 101.778,60.980 102.464,61.200 102.600 C 61.420 102.736,61.600 103.176,61.600 103.578 C 61.600 103.980,61.869 104.824,62.198 105.454 C 62.745 106.504,62.795 106.525,62.798 105.700 C 62.799 105.205,62.620 104.800,62.400 104.800 C 62.180 104.800,62.000 104.260,62.000 103.600 C 62.000 102.940,61.831 102.400,61.625 102.400 C 61.419 102.400,61.178 101.815,61.089 101.100 L 60.928 99.800 60.864 101.076 M125.660 105.100 C 125.627 105.815,125.420 106.400,125.200 106.400 C 124.980 106.400,124.800 106.850,124.800 107.400 C 124.800 107.950,124.620 108.400,124.400 108.400 C 124.180 108.400,124.000 108.670,124.000 109.000 C 124.000 109.330,123.820 109.600,123.600 109.600 C 123.380 109.600,123.200 109.912,123.200 110.293 C 123.200 110.742,123.551 110.469,124.200 109.514 C 124.750 108.705,125.200 107.799,125.200 107.501 C 125.200 107.204,125.394 106.766,125.631 106.529 C 125.868 106.292,125.985 105.581,125.891 104.949 C 125.723 103.819,125.719 103.821,125.660 105.100 M122.007 112.583 C 121.089 114.921,112.192 123.200,110.597 123.200 C 110.268 123.200,110.000 123.338,110.000 123.506 C 110.000 123.797,107.508 125.068,105.800 125.648 C 105.251 125.835,105.196 125.933,105.623 125.960 C 106.278 126.002,110.556 123.936,112.600 122.590 C 116.806 119.821,123.619 112.285,122.725 111.391 C 122.626 111.292,122.303 111.828,122.007 112.583 M68.437 116.200 C 69.364 117.612,70.568 118.857,71.800 119.677 C 72.975 120.460,72.973 120.453,71.702 119.338 C 70.989 118.712,69.844 117.570,69.158 116.800 C 68.472 116.030,68.148 115.760,68.437 116.200 M73.200 120.573 C 73.200 121.241,76.781 123.615,77.746 123.586 C 77.996 123.579,77.531 123.256,76.714 122.869 C 75.896 122.482,74.771 121.737,74.214 121.213 C 73.656 120.689,73.200 120.401,73.200 120.573 M79.685 125.000 C 80.718 125.550,81.896 126.000,82.302 126.000 C 82.708 126.000,83.237 126.197,83.478 126.438 C 83.718 126.678,84.249 126.789,84.658 126.684 C 85.269 126.527,85.241 126.485,84.500 126.446 C 84.005 126.421,83.600 126.220,83.600 126.000 C 83.600 125.780,83.060 125.600,82.400 125.600 C 81.740 125.600,81.200 125.420,81.200 125.200 C 81.200 124.980,80.840 124.800,80.400 124.800 C 79.960 124.800,79.600 124.620,79.600 124.400 C 79.600 124.180,79.196 124.000,78.703 124.000 C 78.036 124.000,78.287 124.256,79.685 125.000 M104.400 125.977 C 104.400 126.322,103.960 126.436,103.045 126.329 C 102.166 126.227,101.750 126.326,101.861 126.614 C 101.955 126.859,102.562 126.979,103.220 126.882 C 104.417 126.707,105.086 126.153,104.640 125.707 C 104.508 125.575,104.400 125.696,104.400 125.977 M90.655 127.400 C 90.782 127.730,91.131 128.000,91.430 128.000 C 91.750 128.000,91.880 127.752,91.745 127.400 C 91.618 127.070,91.269 126.800,90.970 126.800 C 90.650 126.800,90.520 127.048,90.655 127.400 M96.000 127.400 C 96.000 127.730,96.270 128.000,96.600 128.000 C 96.930 128.000,97.200 127.730,97.200 127.400 C 97.200 127.070,96.930 126.800,96.600 126.800 C 96.270 126.800,96.000 127.070,96.000 127.400 M93.100 128.282 C 93.595 128.378,94.405 128.378,94.900 128.282 C 95.395 128.187,94.990 128.109,94.000 128.109 C 93.010 128.109,92.605 128.187,93.100 128.282 M257.600 149.033 L 256.600 149.588 257.700 149.594 C 258.305 149.597,258.800 149.433,258.800 149.228 C 258.800 149.023,259.205 148.778,259.700 148.682 C 260.530 148.522,260.522 148.508,259.600 148.494 C 259.050 148.485,258.150 148.728,257.600 149.033 M268.716 148.697 C 270.099 148.775,272.259 148.774,273.516 148.695 C 274.772 148.616,273.640 148.552,271.000 148.553 C 268.360 148.553,267.332 148.618,268.716 148.697 M283.024 148.987 C 284.039 149.756,284.634 149.763,284.000 149.000 C 283.726 148.670,283.220 148.400,282.875 148.400 C 282.372 148.400,282.402 148.517,283.024 148.987 M253.824 149.813 C 253.067 150.385,253.070 150.400,253.947 150.400 C 254.442 150.400,254.745 150.235,254.621 150.034 C 254.497 149.833,254.621 149.577,254.898 149.466 C 255.174 149.354,255.220 149.255,255.000 149.244 C 254.780 149.234,254.251 149.490,253.824 149.813 M288.224 149.787 C 289.239 150.556,289.834 150.563,289.200 149.800 C 288.926 149.470,288.420 149.200,288.075 149.200 C 287.572 149.200,287.602 149.317,288.224 149.787 M291.455 150.600 C 291.582 150.930,291.958 151.200,292.292 151.200 C 292.785 151.200,292.805 151.088,292.400 150.600 C 292.126 150.270,291.750 150.000,291.564 150.000 C 291.377 150.000,291.329 150.270,291.455 150.600 M115.443 153.767 C 115.576 154.115,115.861 154.400,116.076 154.400 C 116.602 154.400,116.273 153.491,115.675 153.292 C 115.382 153.194,115.293 153.377,115.443 153.767 M159.620 154.962 C 159.315 155.532,159.186 156.119,159.333 156.266 C 159.480 156.413,159.600 156.248,159.600 155.900 C 159.600 155.552,159.807 155.198,160.060 155.113 C 160.313 155.029,160.442 154.727,160.348 154.443 C 160.241 154.122,159.964 154.320,159.620 154.962 M118.800 155.105 C 118.800 155.326,119.158 155.600,119.595 155.715 C 120.033 155.829,120.554 156.352,120.754 156.878 C 120.953 157.403,121.405 158.073,121.758 158.365 C 122.344 158.851,122.400 166.439,122.400 244.649 C 122.400 324.600,122.511 334.059,123.395 329.100 C 123.732 327.211,123.363 162.949,123.016 160.735 C 122.856 159.710,122.427 158.530,122.063 158.113 C 121.698 157.697,121.210 157.022,120.978 156.612 C 120.460 155.699,118.800 154.550,118.800 155.105 M234.800 157.600 C 233.810 158.258,233.180 158.793,233.400 158.789 C 233.620 158.785,234.250 158.430,234.800 158.000 C 235.350 157.570,236.025 157.214,236.300 157.209 C 236.575 157.204,236.800 157.020,236.800 156.800 C 236.800 156.260,236.840 156.244,234.800 157.600 M307.200 156.732 C 307.200 156.907,307.830 157.298,308.600 157.600 C 309.370 157.902,310.000 158.296,310.000 158.475 C 310.000 158.654,310.191 158.800,310.424 158.800 C 311.173 158.800,310.448 158.106,308.802 157.248 C 307.921 156.789,307.200 156.556,307.200 156.732 M311.200 159.176 C 311.200 159.409,311.378 159.600,311.595 159.600 C 311.967 159.600,313.015 160.360,314.216 161.500 C 314.506 161.775,314.950 162.000,315.202 162.000 C 315.455 162.000,314.882 161.407,313.931 160.682 C 311.577 158.891,311.200 158.683,311.200 159.176 M65.272 160.425 C 64.671 161.396,64.779 161.707,65.551 161.230 C 65.841 161.051,66.016 160.605,65.939 160.239 C 65.821 159.674,65.720 159.702,65.272 160.425 M230.163 161.100 C 229.499 161.705,229.250 161.975,229.609 161.700 C 229.969 161.425,230.397 161.200,230.560 161.200 C 230.723 161.200,231.127 160.930,231.457 160.600 C 232.523 159.534,231.409 159.964,230.163 161.100 M318.856 165.267 C 320.537 166.880,322.832 169.237,323.956 170.504 C 326.642 173.533,326.598 173.037,323.900 169.878 C 321.287 166.818,321.499 167.027,318.390 164.467 L 315.800 162.334 318.856 165.267 M221.002 170.398 C 220.603 170.839,220.407 171.200,220.567 171.200 C 220.988 171.200,222.128 169.995,221.912 169.779 C 221.811 169.678,221.402 169.956,221.002 170.398 M327.644 175.100 C 327.945 175.595,328.329 176.000,328.496 176.000 C 328.663 176.000,328.804 176.225,328.809 176.500 C 328.820 177.136,330.379 179.155,330.391 178.549 C 330.396 178.301,330.130 177.874,329.800 177.600 C 329.470 177.326,329.200 176.885,329.200 176.621 C 329.200 176.356,328.726 175.703,328.147 175.170 C 327.132 174.234,327.114 174.232,327.644 175.100 M337.460 197.106 C 337.712 197.268,338.003 197.850,338.105 198.400 C 338.263 199.247,338.299 199.201,338.346 198.100 C 338.387 197.106,338.235 196.801,337.700 196.806 C 337.250 196.810,337.164 196.917,337.460 197.106 M244.400 199.971 C 244.400 200.175,244.085 200.433,243.700 200.545 C 243.279 200.667,243.386 200.718,243.969 200.674 C 244.904 200.603,245.712 199.600,244.833 199.600 C 244.595 199.600,244.400 199.767,244.400 199.971 M254.100 200.100 C 254.191 200.375,254.599 200.664,255.005 200.743 C 255.683 200.875,255.691 200.834,255.100 200.243 C 254.332 199.475,253.870 199.408,254.100 200.100 M338.254 200.270 C 338.503 200.451,338.807 200.960,338.928 201.400 C 339.101 202.031,339.132 201.995,339.074 201.231 C 339.033 200.699,338.730 200.190,338.400 200.101 C 338.004 199.994,337.954 200.051,338.254 200.270 M260.000 201.800 C 260.274 202.130,260.650 202.400,260.836 202.400 C 261.023 202.400,261.071 202.130,260.945 201.800 C 260.818 201.470,260.442 201.200,260.108 201.200 C 259.615 201.200,259.595 201.312,260.000 201.800 M235.843 202.633 C 235.693 203.023,235.782 203.206,236.075 203.108 C 236.673 202.909,237.002 202.000,236.476 202.000 C 236.261 202.000,235.976 202.285,235.843 202.633 M231.258 205.387 C 228.664 207.220,223.200 212.775,223.200 213.579 C 223.200 213.807,222.840 214.218,222.400 214.493 C 221.960 214.768,221.600 215.309,221.600 215.696 C 221.600 216.083,221.420 216.400,221.200 216.400 C 220.980 216.400,220.800 216.760,220.800 217.200 C 220.800 217.640,220.620 218.000,220.400 218.000 C 220.180 218.000,220.000 218.191,220.000 218.424 C 220.000 219.191,220.767 218.392,221.476 216.883 C 223.135 213.359,229.438 206.566,232.407 205.104 C 233.173 204.727,233.530 204.423,233.200 204.429 C 232.870 204.435,231.996 204.866,231.258 205.387 M266.492 204.875 C 266.579 205.136,266.864 205.421,267.125 205.508 C 267.418 205.606,267.507 205.423,267.357 205.033 C 267.078 204.306,266.252 204.155,266.492 204.875 M338.800 205.567 C 338.800 205.805,338.980 206.000,339.200 206.000 C 339.465 206.000,339.600 228.067,339.600 271.400 C 339.600 307.370,339.463 336.800,339.295 336.800 C 339.127 336.800,338.812 337.205,338.595 337.700 C 338.324 338.317,337.792 338.639,336.900 338.725 C 336.185 338.794,335.600 339.038,335.600 339.267 C 335.600 339.675,325.154 339.593,296.300 338.960 C 289.019 338.800,285.200 338.853,285.200 339.115 C 285.200 339.937,287.024 340.000,310.733 339.994 C 337.871 339.987,338.108 339.964,339.507 337.200 C 340.245 335.742,340.041 205.547,339.300 205.300 C 339.025 205.208,338.800 205.328,338.800 205.567 M270.339 208.001 C 271.251 208.662,272.538 209.949,273.199 210.861 C 273.859 211.774,274.396 212.268,274.392 211.960 C 274.381 211.255,269.898 206.800,269.199 206.800 C 268.913 206.800,269.426 207.341,270.339 208.001 M274.800 212.769 C 274.800 212.952,275.078 213.333,275.417 213.615 C 275.757 213.896,276.381 214.863,276.803 215.763 C 277.392 217.018,277.574 217.190,277.585 216.500 C 277.593 216.005,277.420 215.600,277.200 215.600 C 276.980 215.600,276.800 215.338,276.800 215.018 C 276.800 214.698,276.350 213.986,275.800 213.436 C 275.250 212.886,274.800 212.586,274.800 212.769 M278.002 217.900 C 278.001 218.395,278.180 218.800,278.400 218.800 C 278.620 218.800,278.800 219.149,278.800 219.576 C 278.800 220.003,278.980 220.464,279.200 220.600 C 279.420 220.736,279.600 221.176,279.600 221.578 C 279.600 221.980,279.869 222.824,280.198 223.454 C 280.745 224.504,280.795 224.525,280.798 223.700 C 280.799 223.205,280.620 222.800,280.400 222.800 C 280.180 222.800,280.000 222.260,280.000 221.600 C 280.000 220.940,279.820 220.400,279.600 220.400 C 279.380 220.400,279.200 220.151,279.200 219.846 C 279.200 219.541,278.931 218.776,278.602 218.146 C 278.055 217.096,278.005 217.075,278.002 217.900 M218.900 221.488 C 218.625 221.586,218.400 221.935,218.400 222.262 C 218.400 222.767,218.498 222.759,219.048 222.210 C 219.752 221.506,219.690 221.206,218.900 221.488 M217.300 228.598 C 216.643 229.344,216.669 229.600,217.400 229.600 C 217.733 229.600,218.000 229.244,218.000 228.800 C 218.000 227.862,217.959 227.850,217.300 228.598 M281.298 283.851 C 281.212 329.711,281.271 335.961,281.800 336.400 C 282.215 336.744,282.400 336.759,282.400 336.449 C 282.400 336.202,282.221 336.000,282.001 336.000 C 281.739 336.000,281.568 318.168,281.500 283.900 L 281.397 231.800 281.298 283.851 M64.800 330.926 C 64.800 331.026,65.069 331.624,65.398 332.254 C 65.824 333.073,65.996 333.192,65.998 332.671 C 65.999 332.271,65.730 331.673,65.400 331.343 C 65.070 331.013,64.800 330.825,64.800 330.926 M122.400 333.000 C 122.400 333.330,122.241 333.600,122.047 333.600 C 121.852 333.600,121.590 334.005,121.463 334.500 C 121.240 335.369,121.259 335.365,122.007 334.400 C 122.734 333.462,123.049 332.400,122.600 332.400 C 122.490 332.400,122.400 332.670,122.400 333.000 M67.205 336.300 C 67.208 336.465,67.883 337.019,68.705 337.530 L 70.200 338.461 68.846 337.230 C 67.424 335.938,67.197 335.810,67.205 336.300 M282.000 337.366 C 282.000 337.868,283.753 339.175,284.400 339.155 C 284.933 339.139,284.933 339.112,284.400 338.918 C 284.070 338.797,283.395 338.330,282.900 337.879 C 282.405 337.429,282.000 337.198,282.000 337.366 M117.900 337.876 C 117.515 337.976,117.200 338.212,117.200 338.400 C 117.200 338.588,116.885 338.824,116.500 338.924 C 116.006 339.053,115.977 339.118,116.400 339.145 C 116.730 339.165,117.450 338.830,118.000 338.400 C 118.550 337.970,118.910 337.635,118.800 337.655 C 118.690 337.676,118.285 337.775,117.900 337.876 M74.000 339.200 C 74.000 339.461,80.933 339.600,94.000 339.600 C 107.067 339.600,114.000 339.461,114.000 339.200 C 114.000 338.939,107.067 338.800,94.000 338.800 C 80.933 338.800,74.000 338.939,74.000 339.200 M161.959 339.202 C 164.535 339.810,213.600 339.808,213.600 339.200 C 213.600 338.937,204.527 338.814,187.100 338.841 C 172.525 338.863,161.212 339.026,161.959 339.202 " stroke="none" fill="#d4d4d4" fill-rule="evenodd"></path></g></svg>